<svg width="58" height="63" viewBox="0 0 58 63" fill="none" xmlns="http://www.w3.org/2000/svg">
<g filter="url(#filter0_dd_10_488)">
<path d="M26.2561 50.8833C26.2561 50.0549 25.5845 49.3833 24.7561 49.3833C23.9276 49.3833 23.2561 50.0549 23.2561 50.8833H26.2561ZM21.7707 38.3567C21.7707 39.1851 22.4423 39.8567 23.2707 39.8567C24.0991 39.8567 24.7707 39.1851 24.7707 38.3567H21.7707ZM33.098 38.3567C33.098 39.1851 33.7696 39.8567 34.598 39.8567C35.4265 39.8567 36.098 39.1851 36.098 38.3567H33.098ZM12.8345 38.0341L11.3883 38.4324C11.5832 39.14 12.2614 39.6026 12.9913 39.5259C13.7212 39.4492 14.2884 38.8556 14.3319 38.123L12.8345 38.0341ZM45.0342 38.0341L43.5368 38.123C43.5803 38.8556 44.1475 39.4492 44.8774 39.5259C45.6073 39.6026 46.2855 39.14 46.4804 38.4324L45.0342 38.0341ZM9.33621 10.5001L10.6395 9.75743C10.3727 9.28919 9.87514 9.00007 9.33621 9.00007C8.79728 9.00007 8.29978 9.28919 8.03295 9.75743L9.33621 10.5001ZM6.45127 15.5628L5.14801 14.8202H5.14801L6.45127 15.5628ZM12.2212 15.5628L10.9179 16.3055L10.9179 16.3055L12.2212 15.5628ZM48.6638 10.7499L49.967 10.0072C49.7002 9.53896 49.2027 9.24985 48.6638 9.24985C48.1249 9.24985 47.6273 9.53896 47.3605 10.0072L48.6638 10.7499ZM45.7788 15.8126L47.0821 16.5553V16.5553L45.7788 15.8126ZM51.5487 15.8126L52.852 15.07L51.5487 15.8126ZM29.1002 2L30.4035 1.25736C30.1366 0.789114 29.6391 0.5 29.1002 0.5C28.5613 0.5 28.0638 0.789114 27.7969 1.25736L29.1002 2ZM26.2153 7.06277L24.912 6.32013L26.2153 7.06277ZM31.9851 7.06277L33.2884 6.32013L31.9851 7.06277ZM27.4344 50.8833C27.4344 51.2425 27.1521 51.5 26.8452 51.5V54.5C28.8459 54.5 30.4344 52.8622 30.4344 50.8833H27.4344ZM26.8452 51.5C26.5383 51.5 26.2561 51.2425 26.2561 50.8833H23.2561C23.2561 52.8622 24.8445 54.5 26.8452 54.5V51.5ZM13.7212 33.4729C13.7212 24.9306 20.5508 18.0393 28.9344 18.0393V15.0393C18.857 15.0393 10.7212 23.3109 10.7212 33.4729H13.7212ZM28.9344 18.0393C37.3179 18.0393 44.1475 24.9306 44.1475 33.4729H47.1475C47.1475 23.3109 39.0117 15.0393 28.9344 15.0393V18.0393ZM18.0478 34.5649C20.0854 34.5649 21.7707 36.2439 21.7707 38.3567H24.7707C24.7707 34.6243 21.7792 31.5649 18.0478 31.5649V34.5649ZM36.098 38.3567C36.098 36.2439 37.7833 34.5649 39.8209 34.5649V31.5649C36.0895 31.5649 33.098 34.6243 33.098 38.3567H36.098ZM14.3319 38.123C14.4506 36.1214 16.0858 34.5649 18.0478 34.5649V31.5649C14.4547 31.5649 11.5474 34.4022 11.3371 37.9453L14.3319 38.123ZM14.2807 37.6358C13.9164 36.3133 13.7212 34.9175 13.7212 33.4729H10.7212C10.7212 35.1889 10.9533 36.8526 11.3883 38.4324L14.2807 37.6358ZM39.8209 34.5649C41.783 34.5649 43.4181 36.1214 43.5368 38.123L46.5316 37.9453C46.3213 34.4022 43.4141 31.5649 39.8209 31.5649V34.5649ZM44.1475 33.4729C44.1475 34.9175 43.9523 36.3133 43.5881 37.6358L46.4804 38.4324C46.9154 36.8526 47.1475 35.1889 47.1475 33.4729H44.1475ZM24.7707 38.3567C24.7707 35.99 26.6799 34.5649 28.9344 34.5649V31.5649C25.5252 31.5649 21.7707 33.8721 21.7707 38.3567H24.7707ZM28.9344 34.5649C31.1888 34.5649 33.098 35.9901 33.098 38.3567H36.098C36.098 33.8721 32.3435 31.5649 28.9344 31.5649V34.5649ZM30.4344 50.8833V33.0649H27.4344V50.8833H30.4344ZM8.03295 11.2427L10.9179 16.3055L13.5244 14.8202L10.6395 9.75743L8.03295 11.2427ZM7.75453 16.3055L10.6395 11.2427L8.03295 9.75743L5.14801 14.8202L7.75453 16.3055ZM9.33621 19.1256C7.95644 19.1256 7.0254 17.585 7.75453 16.3055L5.14801 14.8202C3.31275 18.0409 5.58721 22.1256 9.33621 22.1256V19.1256ZM10.9179 16.3055C11.647 17.585 10.716 19.1256 9.33621 19.1256V22.1256C13.0852 22.1256 15.3597 18.0409 13.5244 14.8202L10.9179 16.3055ZM47.3605 11.4925L50.2455 16.5553L52.852 15.07L49.967 10.0072L47.3605 11.4925ZM47.0821 16.5553L49.967 11.4925L47.3605 10.0072L44.4756 15.07L47.0821 16.5553ZM48.6638 19.3754C47.284 19.3754 46.353 17.8348 47.0821 16.5553L44.4756 15.07C42.6403 18.2907 44.9148 22.3754 48.6638 22.3754V19.3754ZM50.2455 16.5553C50.9746 17.8348 50.0436 19.3754 48.6638 19.3754V22.3754C52.4128 22.3754 54.6872 18.2907 52.852 15.07L50.2455 16.5553ZM27.7969 2.74264L30.6819 7.80541L33.2884 6.32013L30.4035 1.25736L27.7969 2.74264ZM27.5185 7.80541L30.4035 2.74264L27.7969 1.25736L24.912 6.32013L27.5185 7.80541ZM29.1002 10.6255C27.7204 10.6255 26.7894 9.08496 27.5185 7.80541L24.912 6.32013C23.0767 9.54081 25.3512 13.6255 29.1002 13.6255V10.6255ZM30.6819 7.80541C31.411 9.08496 30.48 10.6255 29.1002 10.6255V13.6255C32.8492 13.6255 35.1237 9.54081 33.2884 6.32013L30.6819 7.80541Z" fill="black"/>
</g>
<defs>
<filter id="filter0_dd_10_488" x="0.500366" y="0.5" width="56.9993" height="62" filterUnits="userSpaceOnUse" color-interpolation-filters="sRGB">
<feFlood flood-opacity="0" result="BackgroundImageFix"/>
<feColorMatrix in="SourceAlpha" type="matrix" values="0 0 0 0 0 0 0 0 0 0 0 0 0 0 0 0 0 0 127 0" result="hardAlpha"/>
<feOffset dy="4"/>
<feGaussianBlur stdDeviation="2"/>
<feComposite in2="hardAlpha" operator="out"/>
<feColorMatrix type="matrix" values="0 0 0 0 0 0 0 0 0 0 0 0 0 0 0 0 0 0 0.25 0"/>
<feBlend mode="normal" in2="BackgroundImageFix" result="effect1_dropShadow_10_488"/>
<feColorMatrix in="SourceAlpha" type="matrix" values="0 0 0 0 0 0 0 0 0 0 0 0 0 0 0 0 0 0 127 0" result="hardAlpha"/>
<feOffset dy="4"/>
<feGaussianBlur stdDeviation="2"/>
<feComposite in2="hardAlpha" operator="out"/>
<feColorMatrix type="matrix" values="0 0 0 0 0 0 0 0 0 0 0 0 0 0 0 0 0 0 0.25 0"/>
<feBlend mode="normal" in2="effect1_dropShadow_10_488" result="effect2_dropShadow_10_488"/>
<feBlend mode="normal" in="SourceGraphic" in2="effect2_dropShadow_10_488" result="shape"/>
</filter>
</defs>
</svg>
